Coordinates
version=1
nRows=21
nColumns=12
inDegrees=yes

Units are S.I. units (second, meters, Newtons, ...)
Angles are in degrees

endheader
time	SC_y	SC_z	SC_x	AC_y	AC_z	AC_x	GH_y	GH_z	GH_yy	EL_x	PS_y
       0.0              -51.24          26.41          7.656           57.8         -3.822          13.11          175.3          44.01          27.93          37.79          26.03
   0.03724              -51.23          26.41          7.656           57.8         -3.822          13.11          175.3          44.02          27.95           37.8          26.03
   0.07448              -51.23          26.41          7.655           57.8         -3.821           13.1          175.2          44.02          27.96          37.81          26.03
    0.1117              -51.22          26.41          7.655           57.8          -3.82           13.1          175.2          44.03          27.97          37.82          26.03
     0.149              -51.22           26.4          7.655           57.8         -3.819          13.09          175.1          44.03          27.99          37.83          26.03
    0.1862              -51.21           26.4          7.654           57.8         -3.818          13.08          175.1          44.04          28.01          37.84          26.03
    0.2235              -51.21          26.39          7.654           57.8         -3.817          13.08          175.1          44.05          28.02          37.85          26.03
    0.2607               -51.2          26.39          7.653           57.8         -3.816          13.07          175.0          44.06          28.04          37.87          26.03
    0.2979              -51.19          26.39          7.653          57.81         -3.814          13.06          175.0          44.07          28.06          37.88          26.04
    0.3352              -51.19          26.38          7.652          57.81         -3.813          13.06          174.9          44.08          28.08           37.9          26.04
    0.3724              -51.18          26.38          7.652          57.81         -3.812          13.05          174.8          44.09          28.11          37.91          26.04
    0.4097              -51.17          26.37          7.651          57.81          -3.81          13.04          174.8           44.1          28.13          37.93          26.04
    0.4469              -51.16          26.37          7.651          57.81         -3.808          13.03          174.7          44.11          28.16          37.95          26.04
    0.4841              -51.15          26.36           7.65          57.81         -3.806          13.02          174.6          44.12          28.19          37.97          26.04
    0.5214              -51.14          26.35          7.649          57.82         -3.804          13.01          174.6          44.14          28.22          37.99          26.04
    0.5586              -51.13          26.34          7.648          57.82         -3.802           13.0          174.5          44.15          28.25          38.02          26.05
    0.5959              -51.12          26.34          7.647          57.82           -3.8          12.98          174.4          44.17          28.29          38.04          26.05
    0.6331               -51.1          26.33          7.646          57.82         -3.797          12.97          174.3          44.19          28.33          38.07          26.05
    0.6704              -51.09          26.32          7.645          57.83         -3.795          12.95          174.2          44.21          28.38          38.11          26.05
    0.7076              -51.07          26.31          7.644          57.83         -3.792          12.94          174.0          44.23          28.42          38.14          26.05
    0.7448              -51.05           26.3          7.643          57.83         -3.788          12.92          173.9          44.25          28.48          38.18          26.06
